<svg width="40" height="40" viewBox="0 0 40 40" fill="none" xmlns="http://www.w3.org/2000/svg">
<path fill-rule="evenodd" clip-rule="evenodd" d="M19.5998 0C22.1737 -4.75265e-06 24.7223 0.506958 27.1003 1.49195C29.4783 2.47694 31.6389 3.92067 33.4589 5.74069C35.2789 7.56072 36.7227 9.72141 37.7076 12.0994C38.6926 14.4774 39.1996 17.0261 39.1996 19.6C39.1996 23.4765 38.0501 27.266 35.8964 30.4892C33.7428 33.7124 30.6817 36.2246 27.1003 37.708C23.5189 39.1915 19.5781 39.5797 15.7761 38.8234C11.9741 38.0671 8.48175 36.2004 5.74067 33.4593C2.99959 30.7182 1.13288 27.2258 0.376616 23.4238C-0.37965 19.6218 0.00849117 15.6809 1.49195 12.0994C2.9754 8.51799 5.48755 5.45689 8.71071 3.30321C11.9339 1.14953 15.7233 7.15795e-06 19.5998 0Z" fill="#F5BE01"/>
<path fill-rule="evenodd" clip-rule="evenodd" d="M28.4695 8.71128C28.2609 8.51386 28.2838 8.40184 28.0877 8.16261C27.8703 7.8973 27.6223 7.76686 27.4674 7.6854C27.005 7.44223 26.5759 7.42804 26.3461 7.42309C25.1996 7.3979 24.3305 8.03819 24.032 8.25798C23.8762 8.37278 23.3116 8.80443 22.8391 9.57023C22.4632 10.1794 22.3205 10.7169 22.2904 10.8346C22.0613 11.732 22.3183 11.9579 22.0995 12.9818C21.9987 13.454 21.9254 13.7972 21.6701 14.1746C21.2877 14.7403 20.7619 14.9904 20.1194 15.2959C19.8335 15.432 19.309 15.6766 18.5687 15.797C17.7644 15.9276 17.1411 15.8406 16.684 15.7731C16.0238 15.6756 15.3748 15.5797 14.6801 15.1767C14.0594 14.8165 13.6937 14.364 12.9623 13.4588C12.4578 12.8344 11.9637 12.1279 11.7934 11.8843C11.2359 11.0872 10.8951 10.5305 10.2188 10.2859C9.80487 10.1362 9.6229 10.2328 9.57462 10.262C9.31264 10.4208 9.27656 10.8438 9.24066 11.264C9.19335 11.8184 9.27786 12.1648 9.14522 12.2184C9.07776 12.2456 9.03585 12.1639 8.78733 12.0513C8.57829 11.9566 8.38706 11.8699 8.19098 11.9321C8.1723 11.9379 7.99124 11.9982 7.90464 12.1707C7.82299 12.3331 7.87286 12.5004 7.95241 12.7671C8.00739 12.9514 8.07025 13.0822 8.16706 13.4112C8.2124 13.565 8.22862 13.6385 8.19098 13.6736C8.12109 13.739 7.96338 13.5826 7.68996 13.602C7.61877 13.6072 7.47603 13.6174 7.3798 13.7213C7.29602 13.8119 7.29048 13.9272 7.28433 14.0553C7.27673 14.2157 7.3084 14.335 7.35591 14.5087C7.37741 14.5871 7.42113 14.7341 7.49908 14.9142C7.55873 15.0521 7.6432 15.2208 7.76407 15.3991C7.81058 15.4679 7.91083 15.6159 7.92849 15.6061C7.94174 15.5985 7.91893 15.4967 7.85694 15.4391C7.73689 15.3273 7.45692 15.3539 7.35591 15.4867C7.22621 15.6575 7.40228 15.9901 7.66607 16.4887C7.83704 16.8118 7.99577 17.0367 8.04781 17.109C8.31975 17.4877 8.57485 17.7369 8.73967 17.8964C9.01399 18.162 9.22245 18.3635 9.55081 18.5644C9.96005 18.8147 10.2585 18.8816 10.2427 18.97C10.2268 19.0584 9.9091 19.0946 9.69391 19.0893C9.39754 19.0817 9.25405 18.9939 9.19299 19.0653C9.13824 19.1293 9.20009 19.2615 9.31224 19.4948C9.55913 20.0084 9.68258 20.2652 9.69391 20.2821C9.80975 20.4546 10.0601 20.8198 10.505 21.0932C10.9548 21.3696 11.2526 21.3368 11.4116 21.6419C11.4916 21.7955 11.4804 21.9266 11.4832 22.0714C11.4956 22.6936 11.763 23.1905 12.008 23.6459C12.2806 24.1524 12.5892 24.4439 13.0578 24.8866C13.3062 25.1211 13.8682 25.6458 14.6801 26.1033C15.084 26.331 15.4388 26.656 15.8729 26.819C15.9425 26.8451 16.1595 26.9229 16.3023 27.1292C16.3486 27.1961 16.4522 27.3453 16.4217 27.5109C16.3827 27.7221 16.1703 27.7183 15.9922 28.0119C15.9309 28.1131 15.8266 28.2849 15.8729 28.4651C15.9193 28.6459 16.097 28.7572 16.2784 28.8707C16.4983 29.0083 16.5385 28.9715 16.6125 29.0616C16.7167 29.1886 16.6534 29.2885 16.6721 29.7922C16.6819 30.056 16.7027 30.1192 16.6989 30.3827C16.6968 30.5492 16.6862 30.6752 16.681 30.7316C16.6652 30.9059 16.6418 31.0464 16.6274 31.1252C16.6199 31.166 16.6225 31.1488 16.5827 31.3488C16.5499 31.5136 16.5334 31.5966 16.529 31.6262C16.5006 31.8174 16.5208 31.8385 16.4931 31.9482C16.4931 31.9484 16.4581 32.0874 16.3739 32.2108C16.2167 32.4408 15.8853 32.3921 15.5151 32.521C15.0617 32.6786 14.6264 32.9527 14.6562 33.0458C14.6817 33.1254 15.0342 33.0285 15.7536 32.9981C16.182 32.9799 16.492 32.9959 16.9941 33.0219C17.618 33.0541 17.93 33.0702 18.354 33.1412C18.845 33.2234 19.335 33.3516 19.8332 33.4513C20.2222 33.5292 20.1888 33.5041 20.2948 33.5411C20.3523 33.561 20.4371 33.5945 20.4535 33.5706C20.4567 33.5657 20.4654 33.5462 20.387 33.453C20.2638 33.3068 20.1595 33.2558 20.1672 33.2366C20.184 33.1945 20.6966 33.4058 20.7398 33.3321C20.7753 33.2713 20.5771 33.0395 20.3103 32.9026C20.1237 32.8069 20.0092 32.8116 19.6184 32.7595C19.3609 32.7251 19.6017 32.7486 18.6642 32.5925C18.0585 32.4917 17.9898 32.4871 17.9007 32.4016C17.7112 32.2194 17.7106 31.9396 17.7099 31.5189C17.7092 31.0209 17.807 30.647 17.8291 30.5646C17.945 30.1358 18.1466 29.8036 18.5449 29.157C18.9965 28.4237 19.1599 28.2967 19.3321 28.2981C19.5229 28.2999 19.7037 28.459 19.7378 28.489C19.9308 28.6589 19.8668 28.7684 20.024 28.9185C20.2251 29.1103 20.5412 29.1327 20.8829 29.157C21.1088 29.1731 21.1588 29.1486 21.2407 29.2047C21.3806 29.3006 21.3194 29.4657 21.4555 29.8489C21.5047 29.9875 21.5548 30.0875 21.6181 30.2137C21.6482 30.2738 21.734 30.4196 21.9044 30.7088C21.9045 30.7089 22.0021 30.8747 22.1165 31.0356C22.1753 31.1182 22.2074 31.1532 22.2312 31.177C22.249 31.1949 22.2675 31.2118 22.3018 31.2477C22.3342 31.2816 22.3577 31.3082 22.3726 31.3252C22.3972 31.3534 22.4305 31.3915 22.4702 31.4431C22.5035 31.4863 22.4993 31.4846 22.5208 31.5104C22.5582 31.5554 22.5727 31.5629 22.6049 31.6013C22.6269 31.6276 22.6314 31.6376 22.6662 31.6889C22.7073 31.7494 22.7271 31.7814 22.7557 31.8141C22.8263 31.8952 22.9111 31.9925 22.9257 32.1004C22.9439 32.2356 22.8477 32.3555 22.7914 32.4254C22.7495 32.4776 22.7117 32.5055 22.6127 32.5852C22.485 32.6879 22.3975 32.7344 22.2904 32.8311C22.0008 33.0924 21.8475 33.4693 21.9087 33.5229C21.954 33.5626 22.1014 33.4121 22.4574 33.2128C22.7095 33.0717 22.9044 32.9968 23.1493 32.9026C23.5384 32.753 23.8349 32.6834 24.2229 32.5925C25.7451 32.2354 25.7411 32.2362 25.7497 32.2346C26.9353 32.0332 27.6509 32.1713 27.6822 32.0437C27.7097 31.9312 27.1812 31.6628 26.6564 31.5666C26.3565 31.5118 26.1056 31.5296 25.8929 31.5427C25.8159 31.5475 25.4696 31.5738 25.0101 31.6859C24.5915 31.788 24.4119 31.8805 24.1513 31.8052C24.0947 31.7888 23.9937 31.7525 23.8412 31.6382C23.6642 31.5055 23.4493 31.2987 23.1016 30.5885C22.9456 30.2698 22.8676 30.1105 22.8153 29.9443C22.6035 29.2714 22.7009 28.6831 22.7438 28.4414C22.7737 28.2721 22.8981 27.6441 23.6026 26.652C23.7419 26.4559 24.103 25.9652 25.3681 24.7911C26.24 23.982 26.3715 23.9338 27.205 23.145C28.4685 21.9491 28.6633 21.5892 28.7796 21.308C29.058 20.6343 29.0494 20.0172 29.042 19.471C29.0319 18.7342 28.8931 18.2073 28.708 17.5147C28.3145 16.042 28.0736 16.0199 27.6822 14.5325C27.4221 13.5446 27.2921 13.0505 27.2527 12.7432C27.2415 12.656 27.2065 12.3574 27.0857 11.9798C27.0239 11.7864 26.9763 11.6873 26.9426 11.5981C26.7778 11.162 26.7143 10.3596 27.1096 9.99963C27.3603 9.77134 27.7342 9.77703 28.2547 9.78499C28.8268 9.79357 29.0959 9.93327 29.209 9.78499C29.328 9.62872 29.1823 9.27422 28.9943 9.06909C28.8134 8.87196 28.7009 8.93045 28.4695 8.71128Z" fill="white"/>
<path fill-rule="evenodd" clip-rule="evenodd" d="M28.3425 8.62702C28.3908 8.61153 28.3628 8.49992 28.4231 8.36753C28.4881 8.22497 28.574 8.23692 28.6557 8.11701C28.8054 7.89748 28.7025 7.58667 28.6735 7.49971C28.6356 7.38498 28.5952 7.26298 28.4768 7.17753C28.2895 7.04261 28.0318 7.08973 27.9937 7.09707C27.8491 7.12541 27.8073 7.18245 27.7433 7.15071C27.6469 7.10327 27.6058 6.90715 27.6716 6.77509C27.7287 6.66047 27.8323 6.66173 27.8416 6.5782C27.8521 6.48396 27.7337 6.36606 27.6091 6.33667C27.4784 6.30598 27.3251 6.36866 27.2064 6.41716C27.1403 6.44423 27.0851 6.47347 27.0095 6.46196C26.9943 6.45979 26.9149 6.44752 26.8665 6.38143C26.8293 6.33076 26.8296 6.27474 26.8307 6.22027C26.8336 6.06527 26.9031 6.01884 26.8753 5.96994C26.8363 5.90074 26.6493 5.90657 26.5085 5.96089C26.3679 6.01529 26.3294 6.09657 26.2222 6.08608C26.2138 6.08535 26.1243 6.07519 26.0702 6.00556C26.0025 5.91841 26.0662 5.83509 26.0166 5.74617C25.9626 5.64947 25.8037 5.59844 25.6855 5.62985C25.5343 5.6701 25.3866 5.8618 25.3366 6.03244C25.3275 6.0635 25.3162 6.11207 25.2829 6.12198C25.2318 6.13704 25.1913 6.04262 25.0772 5.97881C25.0591 5.96868 24.9537 5.91138 24.8266 5.9251C24.6673 5.94225 24.5664 6.06172 24.5404 6.09516C24.4453 6.21698 24.4441 6.34987 24.442 6.5782C24.4402 6.76231 24.4391 6.88413 24.4956 7.03446C24.5373 7.14546 24.6158 7.25755 24.773 7.48175C24.8424 7.58084 24.8747 7.63241 24.8893 7.64283C25.0584 7.76357 25.2815 7.59293 25.7027 7.50003C25.8336 7.47111 26.1281 7.41787 26.4781 7.45822C26.5459 7.46611 26.8363 7.50282 27.1795 7.66079C27.3308 7.73014 27.5564 7.83378 27.7521 8.02744C28.0748 8.34705 28.1725 8.47473 28.1726 8.47498C28.2282 8.54733 28.2953 8.64197 28.3425 8.62702ZM27.9851 9.73671C27.8783 9.70077 27.5624 9.6159 27.2695 9.78445C26.9684 9.95751 26.8915 10.2828 26.8401 10.5002C26.7514 10.8746 26.8422 11.1729 26.8758 11.2785C26.9213 11.4211 26.9614 11.5471 27.0816 11.6542C27.2458 11.8006 27.4519 11.8161 27.592 11.8265C27.7909 11.8414 27.9446 11.8006 28.012 11.7795C28.2146 11.7162 28.346 11.6115 28.3907 11.5737C28.4479 11.5253 28.5954 11.398 28.677 11.192C28.8218 10.8268 28.6545 10.4782 28.6203 10.4107C28.603 10.3556 28.4492 9.89306 27.9851 9.73671Z" fill="#FF0000"/>
</svg>
