<svg width="200" height="64" viewBox="0 0 200 64" fill="none" xmlns="http://www.w3.org/2000/svg">
<path fill-rule="evenodd" clip-rule="evenodd" d="M31.9278 0C36.1207 -7.69785e-06 40.2725 0.821118 44.1461 2.4165C48.0198 4.01189 51.5395 6.35028 54.5043 9.29817C57.4691 12.2461 59.8209 15.7457 61.4254 19.5973C63.0299 23.4489 63.8558 27.5771 63.8558 31.746C63.8558 38.0248 61.9832 44.1626 58.475 49.3832C54.9667 54.6038 49.9802 58.6727 44.1462 61.0755C38.3121 63.4783 31.8925 64.107 25.6991 62.8821C19.5057 61.6571 13.8167 58.6336 9.3515 54.1939C4.8863 49.7541 1.84546 44.0975 0.613505 37.9394C-0.618446 31.7813 0.013832 25.3982 2.43037 19.5974C4.84691 13.7966 8.93917 8.8385 14.1897 5.35019C19.4402 1.86189 25.6131 1.15937e-05 31.9278 0Z" fill="#F5BE01"/>
<path fill-rule="evenodd" clip-rule="evenodd" d="M46.3758 14.109C46.036 13.7893 46.0734 13.6078 45.7539 13.2204C45.3998 12.7906 44.9957 12.5794 44.7434 12.4474C43.9902 12.0536 43.2912 12.0306 42.9169 12.0226C41.0492 11.9818 39.6334 13.0188 39.1472 13.3748C38.8935 13.5608 37.9736 14.2599 37.204 15.5003C36.5916 16.487 36.3592 17.3575 36.3102 17.5481C35.9369 19.0016 36.3556 19.3676 35.9992 21.026C35.835 21.7907 35.7155 22.3467 35.2997 22.958C34.6767 23.8743 33.8203 24.2792 32.7736 24.7741C32.3078 24.9946 31.4535 25.3908 30.2476 25.5857C28.9374 25.7973 27.9219 25.6563 27.1773 25.5471C26.1019 25.389 25.0447 25.2337 23.913 24.581C22.9019 23.9977 22.3062 23.2647 21.1148 21.7986C20.2929 20.7873 19.488 19.6428 19.2106 19.2484C18.3025 17.9573 17.7473 17.0557 16.6456 16.6595C15.9713 16.417 15.6749 16.5734 15.5962 16.6208C15.1695 16.8779 15.1107 17.563 15.0522 18.2437C14.9751 19.1415 15.1128 19.7028 14.8967 19.7895C14.7868 19.8335 14.7186 19.7013 14.3137 19.5189C13.9732 19.3655 13.6617 19.2251 13.3423 19.3258C13.3119 19.3352 13.0169 19.4328 12.8758 19.7122C12.7428 19.9752 12.8241 20.2463 12.9537 20.6782C13.0432 20.9767 13.1456 21.1886 13.3033 21.7215C13.3772 21.9705 13.4036 22.0896 13.3423 22.1465C13.2284 22.2524 12.9715 21.999 12.5261 22.0306C12.4102 22.039 12.1776 22.0555 12.0209 22.2238C11.8844 22.3705 11.8754 22.5572 11.8654 22.7647C11.853 23.0245 11.9046 23.2177 11.982 23.4991C12.017 23.626 12.0882 23.8641 12.2152 24.1559C12.3123 24.3792 12.45 24.6524 12.6469 24.9413C12.7226 25.0526 12.8859 25.2924 12.9147 25.2766C12.9363 25.2643 12.8991 25.0993 12.7981 25.0061C12.6026 24.825 12.1465 24.868 11.982 25.0832C11.7707 25.3598 12.0575 25.8985 12.4872 26.7061C12.7657 27.2294 13.0243 27.5937 13.1091 27.7109C13.552 28.3241 13.9676 28.7278 14.2361 28.9862C14.683 29.4162 15.0225 29.7428 15.5574 30.068C16.2241 30.4734 16.7102 30.5819 16.6845 30.725C16.6586 30.8682 16.1411 30.9269 15.7905 30.9182C15.3078 30.906 15.074 30.7637 14.9746 30.8794C14.8854 30.9831 14.9861 31.1971 15.1688 31.5751C15.571 32.407 15.7721 32.8229 15.7905 32.8503C15.9793 33.1297 16.387 33.7211 17.1119 34.164C17.8445 34.6117 18.3296 34.5585 18.5886 35.0527C18.719 35.3014 18.7006 35.5139 18.7052 35.7483C18.7255 36.7562 19.1611 37.561 19.5603 38.2986C20.0042 39.119 20.5069 39.5911 21.2703 40.308C21.6749 40.688 22.5905 41.5379 23.913 42.2788C24.571 42.6476 25.1489 43.174 25.8561 43.438C25.9694 43.4803 26.3229 43.6063 26.5556 43.9405C26.6311 44.0488 26.7997 44.2904 26.75 44.5586C26.6865 44.9008 26.3405 44.8946 26.0504 45.3702C25.9505 45.534 25.7806 45.8123 25.8561 46.1042C25.9316 46.3971 26.2212 46.5773 26.5167 46.7612C26.8748 46.984 26.9404 46.9244 27.0608 47.0703C27.2306 47.2761 27.1275 47.4378 27.158 48.2537C27.174 48.681 27.2078 48.7834 27.2017 49.2101C27.1981 49.4798 27.181 49.6839 27.1725 49.7752C27.1467 50.0576 27.1087 50.2851 27.0852 50.4128C27.0729 50.4788 27.0772 50.4509 27.0123 50.7749C26.9588 51.0418 26.932 51.1762 26.9248 51.2242C26.8786 51.5338 26.9115 51.568 26.8664 51.7458C26.8664 51.746 26.8094 51.9712 26.6723 52.171C26.4161 52.5437 25.8763 52.4647 25.2732 52.6734C24.5346 52.9288 23.8255 53.3728 23.874 53.5235C23.9156 53.6525 24.4899 53.4954 25.6618 53.4462C26.3596 53.4168 26.8646 53.4427 27.6826 53.4849C28.6988 53.537 29.207 53.563 29.8978 53.6781C30.6976 53.8112 31.4957 54.0188 32.3073 54.1803C32.9411 54.3065 32.8866 54.2658 33.0593 54.3257C33.153 54.3581 33.2912 54.4122 33.3178 54.3735C33.3231 54.3656 33.3372 54.334 33.2094 54.183C33.0088 53.9463 32.8388 53.8637 32.8515 53.8326C32.8787 53.7644 33.7138 54.1067 33.7842 53.9872C33.8421 53.8888 33.5192 53.5134 33.0846 53.2916C32.7806 53.1366 32.594 53.1442 31.9575 53.0598C31.538 53.0041 31.9303 53.0421 30.4031 52.7893C29.4164 52.626 29.3045 52.6187 29.1594 52.4802C28.8506 52.185 28.8497 51.7318 28.8486 51.0504C28.8474 50.2439 29.0068 49.6382 29.0428 49.5047C29.2315 48.8103 29.5599 48.2722 30.2088 47.2248C30.9445 46.0371 31.2105 45.8314 31.4911 45.8338C31.8018 45.8367 32.0965 46.0944 32.1519 46.1429C32.4663 46.418 32.3621 46.5955 32.6182 46.8385C32.9458 47.1492 33.4607 47.1856 34.0173 47.2248C34.3853 47.2509 34.4668 47.2112 34.6002 47.3022C34.828 47.4575 34.7284 47.7248 34.9501 48.3455C35.0302 48.5701 35.1119 48.732 35.215 48.9364C35.264 49.0338 35.4038 49.2699 35.6813 49.7383C35.6814 49.7384 35.8404 50.007 36.0269 50.2675C36.1227 50.4014 36.1749 50.4581 36.2136 50.4966C36.2427 50.5257 36.2728 50.5531 36.3287 50.6112C36.3815 50.666 36.4198 50.7092 36.444 50.7367C36.4842 50.7823 36.5384 50.844 36.603 50.9277C36.6573 50.9977 36.6504 50.9949 36.6854 51.0366C36.7464 51.1096 36.77 51.1217 36.8225 51.1839C36.8583 51.2265 36.8657 51.2427 36.9224 51.3257C36.9893 51.4238 37.0215 51.4755 37.068 51.5286C37.1832 51.66 37.3213 51.8176 37.345 51.9923C37.3747 52.2113 37.218 52.4055 37.1263 52.5187C37.0581 52.6033 36.9964 52.6484 36.8351 52.7775C36.6272 52.9438 36.4846 53.0192 36.3102 53.1757C35.8383 53.5991 35.5886 54.2094 35.6883 54.2962C35.7622 54.3606 36.0022 54.1167 36.5821 53.794C36.9929 53.5654 37.3104 53.4441 37.7092 53.2916C38.3431 53.0494 38.8261 52.9366 39.4582 52.7893C41.9377 52.2109 41.9313 52.2122 41.9453 52.2096C43.8766 51.8834 45.0423 52.1071 45.0933 51.9005C45.1381 51.7182 44.2772 51.2834 43.4223 51.1277C42.9338 51.0389 42.525 51.0677 42.1786 51.089C42.0531 51.0968 41.489 51.1393 40.7405 51.3209C40.0586 51.4863 39.7661 51.6362 39.3414 51.5141C39.2493 51.4876 39.0848 51.4288 38.8363 51.2436C38.548 51.0287 38.198 50.6938 37.6315 49.5434C37.3775 49.0272 37.2504 48.7693 37.1652 48.5C36.8201 47.4101 36.9789 46.4573 37.0486 46.0658C37.0974 45.7916 37.3 44.7745 38.4477 43.1676C38.6747 42.8499 39.2629 42.055 41.3236 40.1535C42.7441 38.8429 42.9583 38.7648 44.316 37.4872C46.3742 35.5503 46.6915 34.9674 46.8809 34.5118C47.3345 33.4207 47.3206 32.4212 47.3084 31.5364C47.2919 30.3431 47.0659 29.4898 46.7644 28.3679C46.1233 25.9826 45.7309 25.9467 45.0933 23.5376C44.6697 21.9375 44.4578 21.1373 44.3937 20.6395C44.3755 20.4983 44.3184 20.0147 44.1216 19.403C44.0209 19.0898 43.9435 18.9292 43.8885 18.7847C43.6201 18.0784 43.5167 16.7787 44.1605 16.1958C44.5689 15.826 45.178 15.8352 46.0259 15.8481C46.9579 15.862 47.3962 16.0883 47.5805 15.8481C47.7743 15.595 47.537 15.0208 47.2308 14.6886C46.9361 14.3693 46.7528 14.464 46.3758 14.109Z" fill="white"/>
<path fill-rule="evenodd" clip-rule="evenodd" d="M46.1704 13.9728C46.2489 13.9477 46.2034 13.767 46.3016 13.5525C46.4074 13.3216 46.5473 13.341 46.6806 13.1468C46.9244 12.7912 46.7567 12.2878 46.7095 12.1469C46.6478 11.9611 46.5819 11.7635 46.3891 11.6251C46.084 11.4066 45.6642 11.4829 45.602 11.4948C45.3665 11.5407 45.2984 11.6331 45.1941 11.5817C45.0371 11.5048 44.9702 11.1872 45.0774 10.9733C45.1704 10.7876 45.3391 10.7897 45.3542 10.6544C45.3715 10.5017 45.1786 10.3107 44.9755 10.2632C44.7626 10.2134 44.5129 10.315 44.3195 10.3935C44.2119 10.4374 44.122 10.4847 43.9988 10.4661C43.9741 10.4626 43.8448 10.4427 43.766 10.3357C43.7053 10.2536 43.7057 10.1628 43.7075 10.0746C43.7123 9.82356 43.8255 9.74836 43.7803 9.66917C43.7166 9.55709 43.4121 9.56652 43.1827 9.65451C42.9537 9.74261 42.891 9.87427 42.7164 9.85727C42.7026 9.8561 42.5568 9.83963 42.4687 9.72685C42.3585 9.5857 42.4621 9.45075 42.3814 9.30673C42.2934 9.1501 42.0346 9.06745 41.8421 9.11833C41.5957 9.18351 41.3552 9.49401 41.2737 9.7704C41.2589 9.82069 41.2405 9.89936 41.1862 9.91543C41.103 9.93981 41.037 9.78688 40.8512 9.68353C40.8216 9.66712 40.6499 9.57432 40.4429 9.59654C40.1834 9.62432 40.0191 9.81782 39.9767 9.87198C39.8217 10.0693 39.8198 10.2845 39.8164 10.6544C39.8134 10.9526 39.8117 11.1499 39.9037 11.3934C39.9717 11.5731 40.0996 11.7547 40.3556 12.1178C40.4686 12.2783 40.5213 12.3619 40.5451 12.3787C40.8205 12.5743 41.1839 12.2979 41.87 12.1474C42.0832 12.1006 42.5631 12.0144 43.1331 12.0797C43.2436 12.0925 43.7166 12.152 44.2757 12.4078C44.5223 12.5201 44.8898 12.688 45.2086 13.0017C45.7342 13.5194 45.8934 13.7262 45.8935 13.7266C45.9841 13.8437 46.0934 13.997 46.1704 13.9728ZM45.5881 15.7702C45.4141 15.712 44.8995 15.5745 44.4224 15.8475C43.9319 16.1278 43.8066 16.6547 43.7228 17.0067C43.5784 17.6132 43.7263 18.0964 43.781 18.2674C43.8551 18.4984 43.9204 18.7025 44.1163 18.8759C44.3837 19.113 44.7195 19.1382 44.9477 19.155C45.2717 19.1792 45.5221 19.113 45.6319 19.0788C45.9619 18.9764 46.176 18.8067 46.2488 18.7456C46.342 18.6672 46.5823 18.4609 46.7152 18.1272C46.951 17.5358 46.6785 16.9711 46.6228 16.8618C46.5947 16.7727 46.344 16.0234 45.5881 15.7702Z" fill="#FF0000"/>
<path fill-rule="evenodd" clip-rule="evenodd" d="M68.8042 44.2165V41.3794L71.3314 40.893V23.9519L68.8042 23.4656V20.6123H79.3531C82.1467 20.6123 84.3261 21.1526 85.8913 22.2335C87.4566 23.3142 88.2391 24.93 88.2391 27.0807C88.2391 28.1723 87.9483 29.1477 87.3669 30.0069C86.7853 30.8661 85.9402 31.5119 84.8315 31.9443C85.7772 32.1496 86.5679 32.5116 87.2039 33.0305C87.8397 33.5492 88.3152 34.1787 88.6304 34.919C88.9457 35.6594 89.1034 36.4673 89.1034 37.3427C89.1034 39.6016 88.3533 41.3118 86.8533 42.4738C85.3532 43.6356 83.2283 44.2165 80.4783 44.2165H68.8042ZM76.0923 40.585H80.4783C81.739 40.585 82.7011 40.3122 83.3641 39.7664C84.027 39.2206 84.3587 38.4126 84.3587 37.3427C84.3587 36.5646 84.2337 35.9106 83.9836 35.3811C83.7336 34.8514 83.3504 34.4516 82.8342 34.1814C82.3179 33.9112 81.6521 33.776 80.837 33.776H76.0923V40.585ZM76.0923 30.5013H79.5162C80.7881 30.5013 81.7662 30.242 82.4511 29.7233C83.1358 29.2044 83.4783 28.4479 83.4783 27.4536C83.4783 26.362 83.1332 25.5568 82.4428 25.0381C81.7526 24.5193 80.7227 24.26 79.3531 24.26H76.0923V30.5013Z" fill="white"/>
<path fill-rule="evenodd" clip-rule="evenodd" d="M91.1906 44.2172V41.3801L93.4732 40.8937V30.0157L90.946 29.5295V26.6762H97.908L98.0874 28.8485L98.12 29.2377C98.5548 28.2865 99.0929 27.5679 99.734 27.0814C100.375 26.595 101.142 26.3519 102.033 26.3519C102.316 26.3519 102.626 26.3763 102.962 26.4249C103.3 26.4735 103.598 26.5357 103.859 26.6113L103.354 30.9722L100.99 30.8425C100.316 30.8102 99.7695 30.9235 99.3511 31.183C98.9325 31.4424 98.5602 31.8152 98.2342 32.3016V40.8937L100.517 41.3801V44.2172H91.1906Z" fill="white"/>
<path fill-rule="evenodd" clip-rule="evenodd" d="M113.367 44.5577C111.628 44.5577 110.134 44.1793 108.884 43.4229C107.634 42.6663 106.677 41.6152 106.014 40.2697C105.351 38.9241 105.019 37.3759 105.019 35.625V35.2845C105.019 33.5446 105.351 32.0016 106.014 30.6562C106.677 29.3106 107.631 28.2569 108.875 27.4948C110.12 26.733 111.606 26.3519 113.335 26.3519C115.085 26.3519 116.579 26.733 117.818 27.4948C119.058 28.2569 120.009 29.3078 120.672 30.648C121.335 31.9882 121.666 33.5336 121.666 35.2845V35.625C121.666 37.3759 121.335 38.9241 120.672 40.2697C120.009 41.6152 119.058 42.6663 117.818 43.4229C116.579 44.1793 115.096 44.5577 113.367 44.5577ZM113.367 40.9262C114.193 40.9262 114.867 40.7046 115.389 40.2615C115.911 39.8184 116.297 39.1997 116.547 38.4053C116.797 37.611 116.922 36.6841 116.922 35.625V35.2845C116.922 34.247 116.797 33.3311 116.547 32.5367C116.297 31.7424 115.908 31.1209 115.381 30.6723C114.854 30.2238 114.172 29.9995 113.335 29.9995C112.52 29.9995 111.845 30.2238 111.313 30.6723C110.78 31.1209 110.392 31.7424 110.147 32.5367C109.903 33.3311 109.78 34.247 109.78 35.2845V35.625C109.78 36.6841 109.903 37.6137 110.147 38.4133C110.392 39.2131 110.78 39.8319 111.313 40.2697C111.845 40.7073 112.53 40.9262 113.367 40.9262Z" fill="white"/>
<path fill-rule="evenodd" clip-rule="evenodd" d="M123.643 44.2174V41.3803L125.942 40.8939V30.0159L123.399 29.5297V26.6764H130.703V40.8939L132.986 41.3803V44.2174H123.643ZM125.779 22.9639V18.9272H130.703V22.9639H125.779Z" fill="white"/>
<path fill-rule="evenodd" clip-rule="evenodd" d="M134.305 44.2174V41.3803L136.604 40.8939V22.2667L134.061 21.7805V18.9272H141.365V40.8939L143.664 41.3803V44.2174H134.305Z" fill="white"/>
<path fill-rule="evenodd" clip-rule="evenodd" d="M153.334 44.559C151.649 44.559 150.176 44.1887 148.915 43.4483C147.654 42.7082 146.678 41.6894 145.988 40.3925C145.298 39.0956 144.953 37.615 144.953 35.9504V35.3021C144.953 33.562 145.279 32.0191 145.931 30.6736C146.583 29.3281 147.504 28.2689 148.695 27.4961C149.885 26.7233 151.289 26.3423 152.91 26.3532C154.507 26.3532 155.849 26.6667 156.937 27.2935C158.023 27.9204 158.85 28.8228 159.415 30.0008C159.98 31.179 160.263 32.6055 160.263 34.2806V36.8584H149.893L149.86 36.9556C149.926 37.723 150.118 38.4065 150.439 39.0063C150.759 39.6062 151.213 40.0764 151.801 40.4169C152.388 40.7572 153.099 40.9275 153.936 40.9275C154.807 40.9275 155.618 40.8168 156.374 40.5952C157.13 40.3736 157.866 40.0466 158.583 39.6144L159.871 42.5324C159.143 43.1161 158.228 43.5997 157.124 43.9833C156.021 44.367 154.758 44.559 153.334 44.559ZM149.926 33.7294H155.812V33.3081C155.812 32.5946 155.717 31.9813 155.526 31.4679C155.337 30.9546 155.032 30.5575 154.613 30.2765C154.194 29.9955 153.654 29.8549 152.991 29.8549C152.361 29.8549 151.828 30.0197 151.393 30.3494C150.959 30.6791 150.619 31.1304 150.374 31.7031C150.13 32.2759 149.964 32.9242 149.876 33.6484L149.926 33.7294Z" fill="white"/>
<path fill-rule="evenodd" clip-rule="evenodd" d="M162.822 44.2172V41.3801L165.104 40.8937V30.0157L162.578 29.5295V26.6762H169.539L169.719 28.8485L169.751 29.2377C170.185 28.2865 170.724 27.5679 171.365 27.0814C172.006 26.595 172.773 26.3519 173.664 26.3519C173.947 26.3519 174.256 26.3763 174.593 26.4249C174.931 26.4735 175.229 26.5357 175.49 26.6113L174.985 30.9722L172.621 30.8425C171.947 30.8102 171.4 30.9235 170.982 31.183C170.563 31.4424 170.192 31.8152 169.865 32.3016V40.8937L172.147 41.3801V44.2172H162.822Z" fill="white"/>
<path fill-rule="evenodd" clip-rule="evenodd" d="M176.47 44.2165V41.3794L178.541 40.9903L185.259 32.5279L178.932 23.8708L177.009 23.4656V20.6123H186.285V23.4656L184.019 23.6764L188.095 29.3503L192.171 23.6764L189.954 23.4656V20.6123H199.101V23.4656L196.997 23.8708L190.916 32.1063L197.731 40.9742L199.998 41.3794V44.2165H190.492V41.3794L192.53 41.1849L188.127 35.1866L183.627 41.1849L185.617 41.3794V44.2165H176.47Z" fill="white"/>
</svg>
