<svg width="159" height="68" viewBox="0 0 159 68" fill="none" xmlns="http://www.w3.org/2000/svg">
<path fill-rule="evenodd" clip-rule="evenodd" d="M26.0522 43.0332L23.9611 41.0024C22.4599 41.9652 20.7116 42.4733 18.9076 42.4733C13.8344 42.4733 9.7217 38.4792 9.7217 33.5524C9.7217 28.6255 13.8344 24.6316 18.9076 24.6316C23.9808 24.6316 28.0933 28.6255 28.0933 33.5524C28.0933 35.2385 27.6088 36.8758 26.6861 38.299L34.9711 46.3448L32.2167 49.0197L28.8874 45.7865C26.0428 47.9785 22.5461 49.1604 18.9076 49.1604C10.0314 49.1604 2.83594 42.1725 2.83594 33.5524C2.83594 24.9323 10.0315 17.9443 18.9076 17.9443C27.7836 17.9443 34.9793 24.9325 34.9793 33.5524C34.9793 35.8976 34.4441 38.2019 33.396 40.3155L33.2097 40.6914L30.2031 37.7719L30.27 37.5944C30.7589 36.2987 31.005 34.9323 31.005 33.5526C31.005 27.064 25.589 21.8042 18.9076 21.8042C12.2263 21.8042 6.80998 27.064 6.80998 33.5526C6.80998 40.0413 12.2261 45.3012 18.9076 45.3012C21.4891 45.3012 23.9769 44.5112 26.052 43.0333L26.0522 43.0332ZM18.9077 28.6431C16.1159 28.6431 13.8525 30.841 13.8525 33.5524C13.8525 36.2638 16.1157 38.4618 18.9077 38.4618C21.6996 38.4618 23.9628 36.2637 23.9628 33.5524C23.9628 30.841 21.6995 28.6431 18.9077 28.6431Z" fill="#FFB800"/>
<path d="M150.099 37.8645C149.698 37.4183 148.912 36.915 147.73 36.3494L147.061 36.0161C142.334 33.7544 139.97 31.5216 139.97 29.3221C139.97 27.7112 140.523 26.3882 141.635 25.3646C142.571 24.4945 143.723 23.992 145.088 23.8582L145.856 23.8213H145.912H152.318H152.592H153.488V29.7576H152.335C151.462 28.3782 150.513 27.3321 149.494 26.6198C148.475 25.9075 147.41 25.5513 146.298 25.5513C145.489 25.5513 144.837 25.7323 144.342 26.0885C143.847 26.4504 143.603 26.9138 143.603 27.4903C143.603 28.3273 144.622 29.1978 146.653 30.1026L146.962 30.238C150.297 31.7364 152.405 32.9743 153.284 33.9466C155.942 36.8696 155.979 40.9194 152.169 42.7042C149.774 43.8264 142.8 44.0995 140.545 42.146C139.846 41.5394 139.402 40.5324 139.402 39.5319C139.402 37.8084 140.47 36.4482 142.268 36.4482C141.789 41.0375 146.593 42.0103 149.101 40.941C150.513 40.3392 151.081 39.1678 150.1 37.8644L150.099 37.8645Z" fill="#FFB800"/>
<path d="M128.146 23.9434C130.94 23.9434 133.193 24.8192 134.905 26.5758C136.617 28.3269 137.472 30.6544 137.472 33.5527C137.472 36.4175 136.61 38.7396 134.888 40.5071C133.164 42.2751 130.917 43.1619 128.146 43.1619C125.375 43.1619 123.128 42.2751 121.405 40.5071C119.682 38.7395 118.82 36.4174 118.82 33.5527C118.82 30.6544 119.67 28.3269 121.376 26.5758C123.081 24.8192 125.34 23.9434 128.146 23.9434ZM128.111 41.4663C129.252 41.4663 130.061 40.8842 130.539 39.7151C131.016 38.5456 131.255 36.4952 131.255 33.5581C131.255 30.6489 131.016 28.604 130.545 27.418C130.073 26.232 129.287 25.6389 128.181 25.6389C127.052 25.6389 126.254 26.2209 125.783 27.3846C125.311 28.5485 125.072 30.6045 125.072 33.5579C125.072 36.495 125.305 38.5455 125.765 39.7149C126.225 40.8841 127.011 41.4662 128.111 41.4662V41.4663Z" fill="#FFB800"/>
<path d="M76.5374 40.2738C75.4579 42.4641 72.9034 43.4285 70.2907 43.4285C68.8473 43.4285 67.683 43.0271 66.7982 42.2185C65.9076 41.4156 65.4648 40.3584 65.4648 39.0583C65.4648 37.368 66.3151 35.9036 68.009 34.6654C70.3452 32.9502 73.7631 31.8516 76.5602 30.9731L76.5597 29.1258C76.5565 29.0512 76.5519 28.9767 76.547 28.9049C76.4728 27.861 76.2302 27.102 75.8213 26.6261C75.3208 26.0443 74.4706 25.7556 73.2656 25.7556C72.5787 25.7556 71.9793 25.8741 71.4554 26.1061C70.9314 26.338 70.6695 26.5696 70.6695 26.8016C70.6695 26.8353 70.7277 26.9034 70.8383 27.0164C71.4262 27.5928 71.7174 28.2207 71.7174 28.9046C71.7174 29.504 71.4963 29.9899 71.0536 30.3745C70.6114 30.7532 70.035 30.9455 69.3303 30.9455C68.4978 30.9455 67.8518 30.7139 67.3861 30.256C66.9202 29.798 66.6876 29.1534 66.6876 28.3281C66.6876 27.022 67.4092 25.9422 68.8472 25.083C70.2849 24.218 72.1249 23.7881 74.3658 23.7881C75.7747 23.7881 77.0437 23.9804 78.1789 24.3594C79.3084 24.7437 80.2165 25.2864 80.8975 25.9931C81.3398 26.4455 81.6541 26.9711 81.8464 27.5761C81.9689 28.1394 81.916 28.5889 81.9318 29.0829C83.0287 28.47 83.6885 27.7516 84.1075 27.0457C84.7285 28.4115 84.5482 30.0942 82.4466 31.4511C79.8381 33.1362 77.4148 33.6694 74.2656 34.8785C72.4375 35.5803 70.7041 36.2139 70.7041 37.8032C70.7041 38.5439 70.9256 39.1545 71.3679 39.6293C71.8105 40.104 72.3869 40.3417 73.0911 40.3417C74.2611 40.3417 75.137 39.834 75.7108 38.8151C75.8915 38.4947 76.0351 38.1873 76.1534 37.8588C77.481 34.1818 81.5256 35.1573 82.1262 35.5316V37.1834V38.8716V38.9249V43.2995C81.7606 43.3857 81.3646 43.4285 80.9384 43.4285C79.809 43.4285 78.8601 43.1513 78.0916 42.5971C77.3178 42.0375 76.7995 41.263 76.5375 40.2738H76.5374Z" fill="#FFB800"/>
<path d="M62.4129 23.8216V44.1092C62.4129 45.4822 62.5717 46.3303 62.8844 46.6364C63.1996 46.9457 63.8914 47.1224 64.9627 47.1676V49.1604H60.1017C57.6732 49.0603 56.8592 47.0322 56.8592 44.4736V40.9406C56.1316 41.7602 55.2932 42.3821 54.3443 42.8119C53.3955 43.247 52.3881 43.4617 51.3345 43.4617C49.0701 43.4617 47.2247 42.5575 45.7986 40.7481C44.3722 38.9333 43.6562 36.5647 43.6562 33.6249C43.6562 30.5434 44.4071 28.1409 45.9091 26.411C47.4108 24.6867 49.4891 23.8216 52.1496 23.8216C53.593 23.8216 54.8625 24.0874 55.9508 24.6246C57.0453 25.1614 58.0815 26.0208 59.0597 27.2139C59.0985 24.6487 59.8947 23.7557 62.4129 23.8217V23.8216ZM56.929 33.523C56.929 30.7303 56.6381 28.7627 56.0498 27.6153C55.4678 26.4674 54.49 25.891 53.128 25.891C51.8643 25.891 50.9736 26.4394 50.4497 27.5303C49.9257 28.6217 49.6638 30.5888 49.6638 33.4213C49.6638 36.169 49.9493 38.1421 50.5256 39.3347C51.1019 40.5278 52.0334 41.1211 53.3312 41.1211C54.6295 41.1211 55.5494 40.5558 56.1022 39.4253C56.6555 38.2947 56.929 36.3272 56.929 33.523Z" fill="#FFB800"/>
<path d="M88.5533 25.5517H85.9336V23.8216C87.4236 23.4991 88.6926 22.7644 89.7405 21.6166C90.5779 20.6994 91.304 19.4755 91.9211 17.9443H94.0717V23.8216H97.7004V25.5517H94.0368V28.905V36.5759V36.6208V38.2686C94.0632 39.4081 94.2183 40.1213 94.4979 40.3948C94.7908 40.6825 95.4138 40.8535 96.3683 40.9096H98.9963V42.885H96.5487H95.299H94.0367H91.7523C89.3564 42.7861 88.5532 40.7854 88.5532 38.261V37.2883V34.7751V30.2435V25.5516L88.5533 25.5517Z" fill="#FFB800"/>
<path d="M101.461 41.223C102.538 41.1776 103.237 40.9971 103.563 40.6861C103.883 40.3696 104.046 39.5439 104.046 38.1985V29.0455C104.046 27.6941 103.883 26.8576 103.563 26.5412C103.237 26.2186 102.538 26.0381 101.461 25.9927V24.3645H101.537H102.125H107.631C109.721 24.3645 109.192 26.1249 109.192 27.6842C109.936 26.0628 112.181 24.127 114.099 24.127C115.112 24.127 115.951 24.455 116.608 25.1049C117.266 25.7552 117.598 26.5865 117.598 27.5868C117.598 28.4631 117.33 29.1642 116.789 29.7014C116.247 30.2383 115.537 30.5043 114.664 30.5043C115.136 28.6646 113.523 26.6987 111.793 27.4379C109.334 28.4892 109.599 32.4979 109.599 34.6706V38.1986C109.599 39.5439 109.78 40.3696 110.147 40.6749C110.508 40.9859 111.34 41.1665 112.638 41.223V42.8851H101.461V41.223H101.461Z" fill="#FFB800"/>
</svg>
